# MagicaVoxel @ Ephtracy

# material
mtllib boyinred.mtl
usemtl palette

# normals
vn -1 0 0
vn 1 0 0
vn 0 0 1
vn 0 0 -1
vn 0 -1 0
vn 0 1 0

# texcoords
vt 0.0332031 0.5
vt 0.0839844 0.5
vt 0.841797 0.5
vt 0.958984 0.5
vt 0.994141 0.5

# verts
v -5 9 7.5
v -5 9 5.5
v -5 10 7.5
v -5 10 6.5
v -5 10 5.5
v -5 10 3.5
v -5 11 6.5
v -5 11 4.5
v -5 11 3.5
v -5 11 2.5
v -5 12 4.5
v -5 12 3.5
v -5 12 2.5
v -5 12 1.5
v -5 13 3.5
v -5 13 1.5
v -4 5 2.5
v -4 5 1.5
v -4 6 3.5
v -4 6 2.5
v -4 9 1.5
v -4 9 0.5
v -4 9 -0.5
v -4 10 3.5
v -4 11 3.5
v -4 11 2.5
v -4 12 4.5
v -4 12 3.5
v -4 12 2.5
v -4 12 1.5
v -4 13 4.5
v -4 13 3.5
v -4 13 1.5
v -4 13 0.5
v -4 13 -0.5
v -4 17 2.5
v -4 17 1.5
v -4 18 2.5
v -4 18 1.5
v -3 0 2.5
v -3 0 1.5
v -3 5 3.5
v -3 5 2.5
v -3 5 1.5
v -3 5 0.5
v -3 6 3.5
v -3 6 2.5
v -3 7 0.5
v -3 7 -0.5
v -3 9 1.5
v -3 9 0.5
v -3 9 -0.5
v -3 10 4.5
v -3 10 3.5
v -3 11 4.5
v -3 11 3.5
v -3 13 4.5
v -3 13 0.5
v -3 13 -0.5
v -3 14 4.5
v -3 14 0.5
v -3 14 -0.5
v -3 15 3.5
v -3 15 0.5
v -3 17 2.5
v -3 17 1.5
v -3 18 3.5
v -3 18 2.5
v -3 18 1.5
v -3 18 0.5
v -3 20 3.5
v -3 20 0.5
v -2 9 4.5
v -2 9 3.5
v -2 10 4.5
v -2 10 3.5
v -2 10 0.5
v -2 10 -0.5
v -2 11 0.5
v -2 11 -0.5
v -1 7 0.5
v -1 7 -0.5
v -1 8 4.5
v -1 8 3.5
v -1 9 4.5
v -1 9 3.5
v -1 9 0.5
v -1 9 -0.5
v -1 11 0.5
v -1 11 -0.5
v -1 12 0.5
v -1 12 -0.5
v -1 14 2.5
v -1 14 1.5
v -1 15 2.5
v -1 15 1.5
v 1 0 2.5
v 1 0 1.5
v 1 5 3.5
v 1 5 2.5
v 1 5 1.5
v 1 5 0.5
v 1 6 3.5
v 1 6 2.5
v 1 6 1.5
v 1 6 0.5
v 2 7 0.5
v 2 7 -0.5
v 2 9 0.5
v 2 9 -0.5
v 3 10 0.5
v 3 10 -0.5
v 3 12 0.5
v 3 12 -0.5
v 4 9 7.5
v 4 9 5.5
v 4 10 7.5
v 4 10 6.5
v 4 10 5.5
v 4 10 3.5
v 4 11 6.5
v 4 11 4.5
v 4 11 3.5
v -4 9 7.5
v -4 9 5.5
v -4 10 7.5
v -4 10 6.5
v -4 10 5.5
v -4 10 3.5
v -4 11 6.5
v -4 11 4.5
v -4 11 3.5
v -3 10 0.5
v -3 10 -0.5
v -3 12 0.5
v -3 12 -0.5
v -2 7 0.5
v -2 7 -0.5
v -2 9 0.5
v -2 9 -0.5
v -1 0 2.5
v -1 0 1.5
v -1 5 3.5
v -1 5 2.5
v -1 5 1.5
v -1 5 0.5
v -1 6 3.5
v -1 6 2.5
v -1 6 1.5
v -1 6 0.5
v 1 7 0.5
v 1 7 -0.5
v 1 8 4.5
v 1 8 3.5
v 1 9 4.5
v 1 9 3.5
v 1 9 0.5
v 1 9 -0.5
v 1 11 0.5
v 1 11 -0.5
v 1 12 0.5
v 1 12 -0.5
v 1 14 2.5
v 1 14 1.5
v 1 15 2.5
v 1 15 1.5
v 2 9 4.5
v 2 9 3.5
v 2 10 4.5
v 2 10 3.5
v 2 10 0.5
v 2 10 -0.5
v 2 11 0.5
v 2 11 -0.5
v 3 0 2.5
v 3 0 1.5
v 3 5 3.5
v 3 5 2.5
v 3 5 1.5
v 3 5 0.5
v 3 6 3.5
v 3 6 2.5
v 3 7 0.5
v 3 7 -0.5
v 3 9 1.5
v 3 9 0.5
v 3 9 -0.5
v 3 10 4.5
v 3 10 3.5
v 3 11 4.5
v 3 11 3.5
v 3 13 4.5
v 3 13 0.5
v 3 13 -0.5
v 3 14 4.5
v 3 14 0.5
v 3 14 -0.5
v 3 15 3.5
v 3 15 0.5
v 3 17 2.5
v 3 17 1.5
v 3 18 3.5
v 3 18 2.5
v 3 18 1.5
v 3 18 0.5
v 3 20 3.5
v 3 20 0.5
v 4 5 2.5
v 4 5 1.5
v 4 6 3.5
v 4 6 2.5
v 4 9 1.5
v 4 9 0.5
v 4 9 -0.5
v 4 10 3.5
v 4 11 3.5
v 4 11 2.5
v 4 12 4.5
v 4 12 3.5
v 4 12 2.5
v 4 12 1.5
v 4 13 4.5
v 4 13 3.5
v 4 13 1.5
v 4 13 0.5
v 4 13 -0.5
v 4 17 2.5
v 4 17 1.5
v 4 18 2.5
v 4 18 1.5
v 5 9 7.5
v 5 9 5.5
v 5 10 7.5
v 5 10 6.5
v 5 10 5.5
v 5 10 3.5
v 5 11 6.5
v 5 11 4.5
v 5 11 3.5
v 5 11 2.5
v 5 12 4.5
v 5 12 3.5
v 5 12 2.5
v 5 12 1.5
v 5 13 3.5
v 5 13 1.5
v -5 9 7.5
v -5 10 7.5
v -4 9 7.5
v -4 10 7.5
v 4 9 7.5
v 4 10 7.5
v 5 9 7.5
v 5 10 7.5
v -5 10 6.5
v -5 11 6.5
v -4 10 6.5
v -4 11 6.5
v 4 10 6.5
v 4 11 6.5
v 5 10 6.5
v 5 11 6.5
v -5 11 4.5
v -5 12 4.5
v -4 11 4.5
v -4 12 4.5
v -4 13 4.5
v -3 10 4.5
v -3 11 4.5
v -3 13 4.5
v -3 14 4.5
v -2 9 4.5
v -2 10 4.5
v -1 8 4.5
v -1 9 4.5
v 1 8 4.5
v 1 9 4.5
v 2 9 4.5
v 2 10 4.5
v 3 10 4.5
v 3 11 4.5
v 3 13 4.5
v 3 14 4.5
v 4 11 4.5
v 4 12 4.5
v 4 13 4.5
v 5 11 4.5
v 5 12 4.5
v -5 12 3.5
v -5 13 3.5
v -4 6 3.5
v -4 10 3.5
v -4 11 3.5
v -4 12 3.5
v -4 13 3.5
v -3 5 3.5
v -3 6 3.5
v -3 10 3.5
v -3 11 3.5
v -3 15 3.5
v -3 18 3.5
v -3 20 3.5
v -2 9 3.5
v -2 10 3.5
v -2 17 3.5
v -2 18 3.5
v -2 19 3.5
v -1 5 3.5
v -1 6 3.5
v -1 8 3.5
v -1 9 3.5
v -1 15 3.5
v -1 16 3.5
v -1 17 3.5
v -1 18 3.5
v 1 5 3.5
v 1 6 3.5
v 1 8 3.5
v 1 9 3.5
v 1 15 3.5
v 1 16 3.5
v 1 17 3.5
v 1 18 3.5
v 2 9 3.5
v 2 10 3.5
v 2 17 3.5
v 2 18 3.5
v 2 19 3.5
v 3 5 3.5
v 3 6 3.5
v 3 10 3.5
v 3 11 3.5
v 3 15 3.5
v 3 18 3.5
v 3 20 3.5
v 4 6 3.5
v 4 10 3.5
v 4 11 3.5
v 4 12 3.5
v 4 13 3.5
v 5 12 3.5
v 5 13 3.5
v -4 5 2.5
v -4 6 2.5
v -4 17 2.5
v -4 18 2.5
v -3 0 2.5
v -3 5 2.5
v -3 6 2.5
v -3 17 2.5
v -3 18 2.5
v -1 0 2.5
v -1 5 2.5
v -1 6 2.5
v -1 14 2.5
v -1 15 2.5
v 1 0 2.5
v 1 5 2.5
v 1 6 2.5
v 1 14 2.5
v 1 15 2.5
v 3 0 2.5
v 3 5 2.5
v 3 6 2.5
v 3 17 2.5
v 3 18 2.5
v 4 5 2.5
v 4 6 2.5
v 4 17 2.5
v 4 18 2.5
v -5 9 5.5
v -5 10 5.5
v -4 9 5.5
v -4 10 5.5
v 4 9 5.5
v 4 10 5.5
v 5 9 5.5
v 5 10 5.5
v -5 10 3.5
v -5 11 3.5
v -4 10 3.5
v -4 11 3.5
v 4 10 3.5
v 4 11 3.5
v 5 10 3.5
v 5 11 3.5
v -5 11 2.5
v -5 12 2.5
v -4 11 2.5
v -4 12 2.5
v 4 11 2.5
v 4 12 2.5
v 5 11 2.5
v 5 12 2.5
v -5 12 1.5
v -5 13 1.5
v -4 5 1.5
v -4 9 1.5
v -4 12 1.5
v -4 13 1.5
v -4 17 1.5
v -4 18 1.5
v -3 0 1.5
v -3 5 1.5
v -3 9 1.5
v -3 17 1.5
v -3 18 1.5
v -1 0 1.5
v -1 5 1.5
v -1 6 1.5
v -1 14 1.5
v -1 15 1.5
v 1 0 1.5
v 1 5 1.5
v 1 6 1.5
v 1 14 1.5
v 1 15 1.5
v 3 0 1.5
v 3 5 1.5
v 3 9 1.5
v 3 17 1.5
v 3 18 1.5
v 4 5 1.5
v 4 9 1.5
v 4 12 1.5
v 4 13 1.5
v 4 17 1.5
v 4 18 1.5
v 5 12 1.5
v 5 13 1.5
v -3 5 0.5
v -3 7 0.5
v -3 10 0.5
v -3 12 0.5
v -3 15 0.5
v -3 18 0.5
v -3 20 0.5
v -2 7 0.5
v -2 9 0.5
v -2 10 0.5
v -2 11 0.5
v -1 5 0.5
v -1 6 0.5
v -1 7 0.5
v -1 9 0.5
v -1 11 0.5
v -1 12 0.5
v 1 5 0.5
v 1 6 0.5
v 1 7 0.5
v 1 9 0.5
v 1 11 0.5
v 1 12 0.5
v 2 7 0.5
v 2 9 0.5
v 2 10 0.5
v 2 11 0.5
v 3 5 0.5
v 3 7 0.5
v 3 10 0.5
v 3 12 0.5
v 3 15 0.5
v 3 18 0.5
v 3 20 0.5
v -4 9 -0.5
v -4 13 -0.5
v -3 7 -0.5
v -3 9 -0.5
v -3 10 -0.5
v -3 12 -0.5
v -3 13 -0.5
v -3 14 -0.5
v -2 7 -0.5
v -2 9 -0.5
v -2 10 -0.5
v -2 11 -0.5
v -1 7 -0.5
v -1 9 -0.5
v -1 11 -0.5
v -1 12 -0.5
v 1 7 -0.5
v 1 9 -0.5
v 1 11 -0.5
v 1 12 -0.5
v 2 7 -0.5
v 2 9 -0.5
v 2 10 -0.5
v 2 11 -0.5
v 3 7 -0.5
v 3 9 -0.5
v 3 10 -0.5
v 3 12 -0.5
v 3 13 -0.5
v 3 14 -0.5
v 4 9 -0.5
v 4 13 -0.5
v -3 0 2.5
v -1 0 2.5
v 1 0 2.5
v 3 0 2.5
v -3 0 1.5
v -1 0 1.5
v 1 0 1.5
v 3 0 1.5
v -3 5 3.5
v -1 5 3.5
v 1 5 3.5
v 3 5 3.5
v -4 5 2.5
v -3 5 2.5
v -1 5 2.5
v 1 5 2.5
v 3 5 2.5
v 4 5 2.5
v -4 5 1.5
v -3 5 1.5
v -1 5 1.5
v 1 5 1.5
v 3 5 1.5
v 4 5 1.5
v -3 5 0.5
v -1 5 0.5
v 1 5 0.5
v 3 5 0.5
v -4 6 3.5
v -3 6 3.5
v -1 6 3.5
v 1 6 3.5
v 3 6 3.5
v 4 6 3.5
v -4 6 2.5
v -3 6 2.5
v -1 6 2.5
v 1 6 2.5
v 3 6 2.5
v 4 6 2.5
v -1 6 1.5
v 1 6 1.5
v -1 6 0.5
v 1 6 0.5
v -3 7 0.5
v -2 7 0.5
v -1 7 0.5
v 1 7 0.5
v 2 7 0.5
v 3 7 0.5
v -3 7 -0.5
v -2 7 -0.5
v -1 7 -0.5
v 1 7 -0.5
v 2 7 -0.5
v 3 7 -0.5
v -1 8 4.5
v 1 8 4.5
v -1 8 3.5
v 1 8 3.5
v -5 9 7.5
v -4 9 7.5
v 4 9 7.5
v 5 9 7.5
v -5 9 5.5
v -4 9 5.5
v 4 9 5.5
v 5 9 5.5
v -2 9 4.5
v -1 9 4.5
v 1 9 4.5
v 2 9 4.5
v -2 9 3.5
v -1 9 3.5
v 1 9 3.5
v 2 9 3.5
v -4 9 1.5
v -3 9 1.5
v 3 9 1.5
v 4 9 1.5
v -4 9 0.5
v -3 9 0.5
v -2 9 0.5
v -1 9 0.5
v 1 9 0.5
v 2 9 0.5
v 3 9 0.5
v 4 9 0.5
v -4 9 -0.5
v -3 9 -0.5
v -2 9 -0.5
v -1 9 -0.5
v 1 9 -0.5
v 2 9 -0.5
v 3 9 -0.5
v 4 9 -0.5
v -5 10 5.5
v -4 10 5.5
v 4 10 5.5
v 5 10 5.5
v -3 10 4.5
v -2 10 4.5
v 2 10 4.5
v 3 10 4.5
v -5 10 3.5
v -4 10 3.5
v -3 10 3.5
v -2 10 3.5
v 2 10 3.5
v 3 10 3.5
v 4 10 3.5
v 5 10 3.5
v -4 11 4.5
v -3 11 4.5
v 3 11 4.5
v 4 11 4.5
v -5 11 3.5
v -4 11 3.5
v -3 11 3.5
v 3 11 3.5
v 4 11 3.5
v 5 11 3.5
v -5 11 2.5
v -4 11 2.5
v 4 11 2.5
v 5 11 2.5
v -5 12 2.5
v -4 12 2.5
v 4 12 2.5
v 5 12 2.5
v -5 12 1.5
v -4 12 1.5
v 4 12 1.5
v 5 12 1.5
v -3 12 0.5
v -1 12 0.5
v 1 12 0.5
v 3 12 0.5
v -3 12 -0.5
v -1 12 -0.5
v 1 12 -0.5
v 3 12 -0.5
v -3 15 3.5
v -1 15 3.5
v 1 15 3.5
v 3 15 3.5
v -1 15 2.5
v 1 15 2.5
v -1 15 1.5
v 1 15 1.5
v -3 15 0.5
v 3 15 0.5
v -4 17 2.5
v -3 17 2.5
v 3 17 2.5
v 4 17 2.5
v -4 17 1.5
v -3 17 1.5
v 3 17 1.5
v 4 17 1.5
v -5 10 7.5
v -4 10 7.5
v 4 10 7.5
v 5 10 7.5
v -5 10 6.5
v -4 10 6.5
v 4 10 6.5
v 5 10 6.5
v -3 10 0.5
v -2 10 0.5
v 2 10 0.5
v 3 10 0.5
v -3 10 -0.5
v -2 10 -0.5
v 2 10 -0.5
v 3 10 -0.5
v -5 11 6.5
v -4 11 6.5
v 4 11 6.5
v 5 11 6.5
v -5 11 4.5
v -4 11 4.5
v 4 11 4.5
v 5 11 4.5
v -2 11 0.5
v -1 11 0.5
v 1 11 0.5
v 2 11 0.5
v -2 11 -0.5
v -1 11 -0.5
v 1 11 -0.5
v 2 11 -0.5
v -5 12 4.5
v -4 12 4.5
v 4 12 4.5
v 5 12 4.5
v -5 12 3.5
v -4 12 3.5
v 4 12 3.5
v 5 12 3.5
v -4 13 4.5
v -3 13 4.5
v 3 13 4.5
v 4 13 4.5
v -5 13 3.5
v -4 13 3.5
v 4 13 3.5
v 5 13 3.5
v -5 13 1.5
v -4 13 1.5
v 4 13 1.5
v 5 13 1.5
v -4 13 0.5
v -3 13 0.5
v 3 13 0.5
v 4 13 0.5
v -4 13 -0.5
v -3 13 -0.5
v 3 13 -0.5
v 4 13 -0.5
v -3 14 4.5
v 3 14 4.5
v -1 14 2.5
v 1 14 2.5
v -1 14 1.5
v 1 14 1.5
v -3 14 0.5
v 3 14 0.5
v -3 14 -0.5
v 3 14 -0.5
v -4 18 2.5
v -3 18 2.5
v 3 18 2.5
v 4 18 2.5
v -4 18 1.5
v -3 18 1.5
v 3 18 1.5
v 4 18 1.5
v -3 20 3.5
v 3 20 3.5
v -3 20 0.5
v 3 20 0.5

# faces
f 3/5/1 2/5/1 1/5/1
f 4/5/1 2/5/1 3/5/1
f 5/5/1 2/5/1 4/5/1
f 7/5/1 6/5/1 5/5/1
f 7/5/1 5/5/1 4/5/1
f 8/5/1 6/5/1 7/5/1
f 9/5/1 6/5/1 8/5/1
f 11/5/1 10/5/1 9/5/1
f 11/5/1 9/5/1 8/5/1
f 12/5/1 10/5/1 11/5/1
f 13/5/1 10/5/1 12/5/1
f 15/5/1 14/5/1 13/5/1
f 15/5/1 13/5/1 12/5/1
f 16/5/1 14/5/1 15/5/1
f 20/3/1 18/3/1 17/3/1
f 21/3/1 18/3/1 20/3/1
f 21/3/1 20/3/1 19/3/1
f 24/3/1 21/3/1 19/3/1
f 24/3/1 22/3/1 21/3/1
f 25/3/1 22/3/1 24/3/1
f 26/3/1 22/3/1 25/3/1
f 29/3/1 22/3/1 26/3/1
f 30/3/1 22/3/1 29/3/1
f 31/3/1 28/3/1 27/3/1
f 32/3/1 28/3/1 31/3/1
f 33/3/1 22/3/1 30/3/1
f 34/4/1 23/4/1 22/4/1
f 34/3/1 22/3/1 33/3/1
f 35/4/1 23/4/1 34/4/1
f 38/1/1 37/1/1 36/1/1
f 39/1/1 37/1/1 38/1/1
f 43/5/1 41/5/1 40/5/1
f 44/5/1 41/5/1 43/5/1
f 46/3/1 43/3/1 42/3/1
f 47/3/1 43/3/1 46/3/1
f 48/3/1 45/3/1 44/3/1
f 50/3/1 48/3/1 44/3/1
f 51/4/1 49/4/1 48/4/1
f 51/3/1 48/3/1 50/3/1
f 52/4/1 49/4/1 51/4/1
f 55/3/1 54/3/1 53/3/1
f 56/3/1 54/3/1 55/3/1
f 60/3/1 58/3/1 57/3/1
f 61/4/1 59/4/1 58/4/1
f 61/3/1 58/3/1 60/3/1
f 62/4/1 59/4/1 61/4/1
f 65/1/1 64/1/1 63/1/1
f 66/1/1 64/1/1 65/1/1
f 67/1/1 65/1/1 63/1/1
f 68/1/1 65/1/1 67/1/1
f 69/1/1 64/1/1 66/1/1
f 70/1/1 64/1/1 69/1/1
f 71/5/1 68/5/1 67/5/1
f 71/5/1 69/5/1 68/5/1
f 71/5/1 70/5/1 69/5/1
f 72/5/1 70/5/1 71/5/1
f 75/3/1 74/3/1 73/3/1
f 76/3/1 74/3/1 75/3/1
f 79/4/1 78/4/1 77/4/1
f 80/4/1 78/4/1 79/4/1
f 85/3/1 84/3/1 83/3/1
f 86/3/1 84/3/1 85/3/1
f 87/4/1 82/4/1 81/4/1
f 88/4/1 82/4/1 87/4/1
f 91/4/1 90/4/1 89/4/1
f 92/4/1 90/4/1 91/4/1
f 95/1/1 94/1/1 93/1/1
f 96/1/1 94/1/1 95/1/1
f 100/5/1 98/5/1 97/5/1
f 101/5/1 98/5/1 100/5/1
f 103/3/1 100/3/1 99/3/1
f 104/3/1 100/3/1 103/3/1
f 105/3/1 102/3/1 101/3/1
f 106/3/1 102/3/1 105/3/1
f 109/4/1 108/4/1 107/4/1
f 110/4/1 108/4/1 109/4/1
f 113/4/1 112/4/1 111/4/1
f 114/4/1 112/4/1 113/4/1
f 117/5/1 116/5/1 115/5/1
f 118/5/1 116/5/1 117/5/1
f 119/5/1 116/5/1 118/5/1
f 121/5/1 120/5/1 119/5/1
f 121/5/1 119/5/1 118/5/1
f 122/5/1 120/5/1 121/5/1
f 123/5/1 120/5/1 122/5/1
f 124/5/2 125/5/2 126/5/2
f 126/5/2 125/5/2 127/5/2
f 127/5/2 125/5/2 128/5/2
f 128/5/2 129/5/2 130/5/2
f 127/5/2 128/5/2 130/5/2
f 130/5/2 129/5/2 131/5/2
f 131/5/2 129/5/2 132/5/2
f 133/4/2 134/4/2 135/4/2
f 135/4/2 134/4/2 136/4/2
f 137/4/2 138/4/2 139/4/2
f 139/4/2 138/4/2 140/4/2
f 141/5/2 142/5/2 144/5/2
f 144/5/2 142/5/2 145/5/2
f 143/3/2 144/3/2 147/3/2
f 147/3/2 144/3/2 148/3/2
f 145/3/2 146/3/2 149/3/2
f 149/3/2 146/3/2 150/3/2
f 153/3/2 154/3/2 155/3/2
f 155/3/2 154/3/2 156/3/2
f 151/4/2 152/4/2 157/4/2
f 157/4/2 152/4/2 158/4/2
f 159/4/2 160/4/2 161/4/2
f 161/4/2 160/4/2 162/4/2
f 163/1/2 164/1/2 165/1/2
f 165/1/2 164/1/2 166/1/2
f 167/3/2 168/3/2 169/3/2
f 169/3/2 168/3/2 170/3/2
f 171/4/2 172/4/2 173/4/2
f 173/4/2 172/4/2 174/4/2
f 175/5/2 176/5/2 178/5/2
f 178/5/2 176/5/2 179/5/2
f 177/3/2 178/3/2 181/3/2
f 181/3/2 178/3/2 182/3/2
f 179/3/2 180/3/2 183/3/2
f 179/3/2 183/3/2 185/3/2
f 183/4/2 184/4/2 186/4/2
f 185/3/2 183/3/2 186/3/2
f 186/4/2 184/4/2 187/4/2
f 188/3/2 189/3/2 190/3/2
f 190/3/2 189/3/2 191/3/2
f 192/3/2 193/3/2 195/3/2
f 193/4/2 194/4/2 196/4/2
f 195/3/2 193/3/2 196/3/2
f 196/4/2 194/4/2 197/4/2
f 198/1/2 199/1/2 200/1/2
f 200/1/2 199/1/2 201/1/2
f 198/1/2 200/1/2 202/1/2
f 202/1/2 200/1/2 203/1/2
f 201/1/2 199/1/2 204/1/2
f 204/1/2 199/1/2 205/1/2
f 202/5/2 203/5/2 206/5/2
f 203/5/2 204/5/2 206/5/2
f 204/5/2 205/5/2 206/5/2
f 206/5/2 205/5/2 207/5/2
f 208/3/2 209/3/2 211/3/2
f 211/3/2 209/3/2 212/3/2
f 210/3/2 211/3/2 212/3/2
f 210/3/2 212/3/2 215/3/2
f 212/3/2 213/3/2 215/3/2
f 215/3/2 213/3/2 216/3/2
f 216/3/2 213/3/2 217/3/2
f 217/3/2 213/3/2 220/3/2
f 220/3/2 213/3/2 221/3/2
f 218/3/2 219/3/2 222/3/2
f 222/3/2 219/3/2 223/3/2
f 221/3/2 213/3/2 224/3/2
f 213/4/2 214/4/2 225/4/2
f 224/3/2 213/3/2 225/3/2
f 225/4/2 214/4/2 226/4/2
f 227/1/2 228/1/2 229/1/2
f 229/1/2 228/1/2 230/1/2
f 231/5/2 232/5/2 233/5/2
f 233/5/2 232/5/2 234/5/2
f 234/5/2 232/5/2 235/5/2
f 235/5/2 236/5/2 237/5/2
f 234/5/2 235/5/2 237/5/2
f 237/5/2 236/5/2 238/5/2
f 238/5/2 236/5/2 239/5/2
f 239/5/2 240/5/2 241/5/2
f 238/5/2 239/5/2 241/5/2
f 241/5/2 240/5/2 242/5/2
f 242/5/2 240/5/2 243/5/2
f 243/5/2 244/5/2 245/5/2
f 242/5/2 243/5/2 245/5/2
f 245/5/2 244/5/2 246/5/2
f 249/5/3 248/5/3 247/5/3
f 250/5/3 248/5/3 249/5/3
f 253/5/3 252/5/3 251/5/3
f 254/5/3 252/5/3 253/5/3
f 257/5/3 256/5/3 255/5/3
f 258/5/3 256/5/3 257/5/3
f 261/5/3 260/5/3 259/5/3
f 262/5/3 260/5/3 261/5/3
f 265/5/3 264/5/3 263/5/3
f 266/5/3 264/5/3 265/5/3
f 269/3/3 266/3/3 265/3/3
f 269/3/3 267/3/3 266/3/3
f 270/3/3 267/3/3 269/3/3
f 273/3/3 269/3/3 268/3/3
f 273/3/3 271/3/3 270/3/3
f 273/3/3 270/3/3 269/3/3
f 275/3/3 273/3/3 272/3/3
f 276/3/3 275/3/3 274/3/3
f 277/3/3 273/3/3 275/3/3
f 277/3/3 275/3/3 276/3/3
f 278/3/3 273/3/3 277/3/3
f 279/3/3 271/3/3 273/3/3
f 279/3/3 273/3/3 278/3/3
f 280/3/3 271/3/3 279/3/3
f 281/3/3 271/3/3 280/3/3
f 282/3/3 271/3/3 281/3/3
f 283/3/3 271/3/3 282/3/3
f 284/3/3 282/3/3 281/3/3
f 285/3/3 282/3/3 284/3/3
f 286/3/3 282/3/3 285/3/3
f 287/5/3 285/5/3 284/5/3
f 288/5/3 285/5/3 287/5/3
f 294/5/3 290/5/3 289/5/3
f 295/5/3 290/5/3 294/5/3
f 297/3/3 293/3/3 292/3/3
f 297/3/3 292/3/3 291/3/3
f 298/3/3 293/3/3 297/3/3
f 299/3/3 293/3/3 298/3/3
f 303/3/3 297/3/3 296/3/3
f 303/3/3 298/3/3 297/3/3
f 304/3/3 298/3/3 303/3/3
f 305/1/3 301/1/3 300/1/3
f 306/5/3 302/5/3 301/5/3
f 306/1/3 301/1/3 305/1/3
f 307/5/3 302/5/3 306/5/3
f 308/3/3 303/3/3 296/3/3
f 309/3/3 303/3/3 308/3/3
f 310/3/3 303/3/3 309/3/3
f 311/3/3 303/3/3 310/3/3
f 312/1/3 305/1/3 300/1/3
f 313/1/3 305/1/3 312/1/3
f 314/5/3 306/5/3 305/5/3
f 314/1/3 305/1/3 313/1/3
f 315/1/3 307/1/3 306/1/3
f 315/5/3 306/5/3 314/5/3
f 317/3/3 310/3/3 309/3/3
f 318/3/3 310/3/3 317/3/3
f 320/2/3 313/2/3 312/2/3
f 321/1/3 314/1/3 313/1/3
f 321/2/3 313/2/3 320/2/3
f 321/1/3 315/1/3 314/1/3
f 322/1/3 315/1/3 321/1/3
f 323/1/3 307/1/3 315/1/3
f 323/1/3 315/1/3 322/1/3
f 324/3/3 319/3/3 318/3/3
f 324/3/3 318/3/3 317/3/3
f 324/3/3 317/3/3 316/3/3
f 326/1/3 322/1/3 321/1/3
f 326/5/3 323/5/3 322/5/3
f 326/1/3 321/1/3 320/1/3
f 327/1/3 307/1/3 323/1/3
f 327/5/3 323/5/3 326/5/3
f 328/5/3 302/5/3 307/5/3
f 328/1/3 307/1/3 327/1/3
f 329/3/3 325/3/3 324/3/3
f 329/3/3 324/3/3 316/3/3
f 330/3/3 325/3/3 329/3/3
f 331/3/3 325/3/3 330/3/3
f 333/1/3 327/1/3 326/1/3
f 333/1/3 326/1/3 320/1/3
f 334/5/3 328/5/3 327/5/3
f 334/1/3 327/1/3 333/1/3
f 335/5/3 302/5/3 328/5/3
f 335/5/3 328/5/3 334/5/3
f 336/3/3 332/3/3 331/3/3
f 336/3/3 331/3/3 330/3/3
f 337/3/3 332/3/3 336/3/3
f 338/3/3 332/3/3 337/3/3
f 341/5/3 340/5/3 339/5/3
f 342/5/3 340/5/3 341/5/3
f 348/3/3 344/3/3 343/3/3
f 349/3/3 344/3/3 348/3/3
f 350/1/3 346/1/3 345/1/3
f 351/1/3 346/1/3 350/1/3
f 352/5/3 348/5/3 347/5/3
f 353/5/3 348/5/3 352/5/3
f 358/3/3 354/3/3 353/3/3
f 359/3/3 354/3/3 358/3/3
f 360/1/3 356/1/3 355/1/3
f 361/1/3 356/1/3 360/1/3
f 362/5/3 358/5/3 357/5/3
f 363/5/3 358/5/3 362/5/3
f 367/3/3 364/3/3 363/3/3
f 368/3/3 364/3/3 367/3/3
f 369/1/3 366/1/3 365/1/3
f 370/1/3 366/1/3 369/1/3
f 371/5/4 372/5/4 373/5/4
f 373/5/4 372/5/4 374/5/4
f 375/5/4 376/5/4 377/5/4
f 377/5/4 376/5/4 378/5/4
f 379/5/4 380/5/4 381/5/4
f 381/5/4 380/5/4 382/5/4
f 383/5/4 384/5/4 385/5/4
f 385/5/4 384/5/4 386/5/4
f 387/5/4 388/5/4 389/5/4
f 389/5/4 388/5/4 390/5/4
f 391/5/4 392/5/4 393/5/4
f 393/5/4 392/5/4 394/5/4
f 395/5/4 396/5/4 399/5/4
f 399/5/4 396/5/4 400/5/4
f 397/3/4 398/3/4 404/3/4
f 404/3/4 398/3/4 405/3/4
f 401/1/4 402/1/4 406/1/4
f 406/1/4 402/1/4 407/1/4
f 403/5/4 404/5/4 408/5/4
f 408/5/4 404/5/4 409/5/4
f 409/3/4 410/3/4 414/3/4
f 414/3/4 410/3/4 415/3/4
f 411/1/4 412/1/4 416/1/4
f 416/1/4 412/1/4 417/1/4
f 413/5/4 414/5/4 418/5/4
f 418/5/4 414/5/4 419/5/4
f 419/3/4 420/3/4 423/3/4
f 423/3/4 420/3/4 424/3/4
f 421/1/4 422/1/4 427/1/4
f 427/1/4 422/1/4 428/1/4
f 425/5/4 426/5/4 429/5/4
f 429/5/4 426/5/4 430/5/4
f 431/3/4 432/3/4 438/3/4
f 433/3/4 434/3/4 440/3/4
f 440/3/4 434/3/4 441/3/4
f 438/3/4 439/3/4 442/3/4
f 431/3/4 438/3/4 442/3/4
f 442/3/4 439/3/4 443/3/4
f 443/3/4 439/3/4 444/3/4
f 444/3/4 439/3/4 445/3/4
f 441/3/4 434/3/4 446/3/4
f 446/3/4 434/3/4 447/3/4
f 443/3/4 444/3/4 449/3/4
f 449/3/4 444/3/4 450/3/4
f 448/3/4 449/3/4 454/3/4
f 449/3/4 450/3/4 454/3/4
f 450/3/4 451/3/4 454/3/4
f 454/3/4 451/3/4 455/3/4
f 452/3/4 453/3/4 457/3/4
f 448/3/4 454/3/4 458/3/4
f 458/3/4 454/3/4 459/3/4
f 456/3/4 457/3/4 460/3/4
f 457/3/4 453/3/4 461/3/4
f 460/3/4 457/3/4 461/3/4
f 435/1/4 436/1/4 462/1/4
f 436/5/4 437/5/4 463/5/4
f 462/1/4 436/1/4 463/1/4
f 463/5/4 437/5/4 464/5/4
f 465/4/4 466/4/4 468/4/4
f 468/4/4 466/4/4 469/4/4
f 469/4/4 466/4/4 470/4/4
f 470/4/4 466/4/4 471/4/4
f 467/4/4 468/4/4 473/4/4
f 468/4/4 469/4/4 473/4/4
f 473/4/4 469/4/4 474/4/4
f 474/4/4 469/4/4 475/4/4
f 475/4/4 476/4/4 478/4/4
f 474/4/4 475/4/4 478/4/4
f 478/4/4 476/4/4 479/4/4
f 471/4/4 472/4/4 480/4/4
f 470/4/4 471/4/4 480/4/4
f 478/4/4 479/4/4 481/4/4
f 479/4/4 480/4/4 481/4/4
f 477/4/4 478/4/4 481/4/4
f 481/4/4 480/4/4 482/4/4
f 482/4/4 480/4/4 483/4/4
f 480/4/4 472/4/4 484/4/4
f 483/4/4 480/4/4 484/4/4
f 482/4/4 483/4/4 486/4/4
f 486/4/4 483/4/4 487/4/4
f 487/4/4 483/4/4 488/4/4
f 485/4/4 486/4/4 489/4/4
f 486/4/4 487/4/4 489/4/4
f 489/4/4 487/4/4 490/4/4
f 490/4/4 487/4/4 491/4/4
f 484/4/4 472/4/4 492/4/4
f 492/4/4 472/4/4 493/4/4
f 493/4/4 472/4/4 494/4/4
f 490/4/4 491/4/4 495/4/4
f 492/4/4 493/4/4 495/4/4
f 491/4/4 492/4/4 495/4/4
f 495/4/4 493/4/4 496/4/4
f 501/5/5 498/5/5 497/5/5
f 502/5/5 498/5/5 501/5/5
f 503/5/5 500/5/5 499/5/5
f 504/5/5 500/5/5 503/5/5
f 510/3/5 506/3/5 505/3/5
f 511/3/5 506/3/5 510/3/5
f 512/3/5 508/3/5 507/3/5
f 513/3/5 508/3/5 512/3/5
f 515/3/5 510/3/5 509/3/5
f 516/3/5 510/3/5 515/3/5
f 517/3/5 512/3/5 511/3/5
f 518/3/5 512/3/5 517/3/5
f 519/3/5 514/3/5 513/3/5
f 520/3/5 514/3/5 519/3/5
f 521/3/5 517/3/5 516/3/5
f 522/3/5 517/3/5 521/3/5
f 523/3/5 519/3/5 518/3/5
f 524/3/5 519/3/5 523/3/5
f 531/3/5 526/3/5 525/3/5
f 532/3/5 526/3/5 531/3/5
f 533/3/5 528/3/5 527/3/5
f 534/3/5 528/3/5 533/3/5
f 535/3/5 530/3/5 529/3/5
f 536/3/5 530/3/5 535/3/5
f 539/3/5 538/3/5 537/3/5
f 540/3/5 538/3/5 539/3/5
f 547/4/5 542/4/5 541/4/5
f 548/4/5 542/4/5 547/4/5
f 549/4/5 544/4/5 543/4/5
f 550/4/5 544/4/5 549/4/5
f 551/4/5 546/4/5 545/4/5
f 552/4/5 546/4/5 551/4/5
f 555/3/5 554/3/5 553/3/5
f 556/3/5 554/3/5 555/3/5
f 561/5/5 558/5/5 557/5/5
f 562/5/5 558/5/5 561/5/5
f 563/5/5 560/5/5 559/5/5
f 564/5/5 560/5/5 563/5/5
f 569/3/5 566/3/5 565/3/5
f 570/3/5 566/3/5 569/3/5
f 571/3/5 568/3/5 567/3/5
f 572/3/5 568/3/5 571/3/5
f 577/3/5 574/3/5 573/3/5
f 578/3/5 574/3/5 577/3/5
f 583/3/5 576/3/5 575/3/5
f 584/3/5 576/3/5 583/3/5
f 585/4/5 578/4/5 577/4/5
f 586/4/5 578/4/5 585/4/5
f 587/4/5 580/4/5 579/4/5
f 588/4/5 580/4/5 587/4/5
f 589/4/5 582/4/5 581/4/5
f 590/4/5 582/4/5 589/4/5
f 591/4/5 584/4/5 583/4/5
f 592/4/5 584/4/5 591/4/5
f 601/5/5 594/5/5 593/5/5
f 602/5/5 594/5/5 601/5/5
f 603/3/5 598/3/5 597/3/5
f 604/3/5 598/3/5 603/3/5
f 605/3/5 600/3/5 599/3/5
f 606/3/5 600/3/5 605/3/5
f 607/5/5 596/5/5 595/5/5
f 608/5/5 596/5/5 607/5/5
f 614/3/5 610/3/5 609/3/5
f 615/3/5 610/3/5 614/3/5
f 616/3/5 612/3/5 611/3/5
f 617/3/5 612/3/5 616/3/5
f 619/5/5 614/5/5 613/5/5
f 620/5/5 614/5/5 619/5/5
f 621/5/5 618/5/5 617/5/5
f 622/5/5 618/5/5 621/5/5
f 627/5/5 624/5/5 623/5/5
f 628/5/5 624/5/5 627/5/5
f 629/5/5 626/5/5 625/5/5
f 630/5/5 626/5/5 629/5/5
f 635/4/5 632/4/5 631/4/5
f 636/4/5 632/4/5 635/4/5
f 637/4/5 634/4/5 633/4/5
f 638/4/5 634/4/5 637/4/5
f 643/1/5 640/1/5 639/1/5
f 643/2/5 641/2/5 640/2/5
f 644/1/5 642/1/5 641/1/5
f 644/2/5 641/2/5 643/2/5
f 645/1/5 643/1/5 639/1/5
f 646/1/5 642/1/5 644/1/5
f 647/1/5 645/1/5 639/1/5
f 647/1/5 646/1/5 645/1/5
f 648/1/5 642/1/5 646/1/5
f 648/1/5 646/1/5 647/1/5
f 653/1/5 650/1/5 649/1/5
f 654/1/5 650/1/5 653/1/5
f 655/1/5 652/1/5 651/1/5
f 656/1/5 652/1/5 655/1/5
f 657/5/6 658/5/6 661/5/6
f 661/5/6 658/5/6 662/5/6
f 659/5/6 660/5/6 663/5/6
f 663/5/6 660/5/6 664/5/6
f 665/4/6 666/4/6 669/4/6
f 669/4/6 666/4/6 670/4/6
f 667/4/6 668/4/6 671/4/6
f 671/4/6 668/4/6 672/4/6
f 673/5/6 674/5/6 677/5/6
f 677/5/6 674/5/6 678/5/6
f 675/5/6 676/5/6 679/5/6
f 679/5/6 676/5/6 680/5/6
f 681/4/6 682/4/6 685/4/6
f 685/4/6 682/4/6 686/4/6
f 683/4/6 684/4/6 687/4/6
f 687/4/6 684/4/6 688/4/6
f 689/5/6 690/5/6 693/5/6
f 693/5/6 690/5/6 694/5/6
f 691/5/6 692/5/6 695/5/6
f 695/5/6 692/5/6 696/5/6
f 697/3/6 698/3/6 702/3/6
f 699/3/6 700/3/6 703/3/6
f 701/5/6 702/5/6 705/5/6
f 702/3/6 698/3/6 706/3/6
f 705/5/6 702/5/6 706/5/6
f 703/5/6 704/5/6 707/5/6
f 699/3/6 703/3/6 707/3/6
f 707/5/6 704/5/6 708/5/6
f 706/3/6 698/3/6 709/3/6
f 709/3/6 698/3/6 710/3/6
f 699/3/6 707/3/6 711/3/6
f 711/3/6 707/3/6 712/3/6
f 709/4/6 710/4/6 713/4/6
f 713/4/6 710/4/6 714/4/6
f 711/4/6 712/4/6 715/4/6
f 715/4/6 712/4/6 716/4/6
f 717/3/6 718/3/6 719/3/6
f 719/3/6 718/3/6 720/3/6
f 717/3/6 719/3/6 721/3/6
f 720/3/6 718/3/6 722/3/6
f 717/3/6 721/3/6 723/3/6
f 721/3/6 722/3/6 723/3/6
f 722/3/6 718/3/6 724/3/6
f 723/3/6 722/3/6 724/3/6
f 723/4/6 724/4/6 725/4/6
f 725/4/6 724/4/6 726/4/6
f 727/1/6 728/1/6 731/1/6
f 731/1/6 728/1/6 732/1/6
f 729/1/6 730/1/6 733/1/6
f 733/1/6 730/1/6 734/1/6
f 735/5/6 736/5/6 737/5/6
f 737/5/6 736/5/6 738/5/6
